<svg xmlns="http://www.w3.org/2000/svg" viewBox="0 0 1018.24 270.46"><defs><style>.cls-1{fill:#94b3c0;}.cls-2{fill:#e35103;}.cls-3,.cls-5{fill:#272525;}.cls-4{fill:#e35000;}.cls-5{stroke:#fff;stroke-miterlimit:10;stroke-width:3px;}</style></defs><g id="Layer_2" data-name="Layer 2"><g id="Layer_1-2" data-name="Layer 1"><rect class="cls-1" x="38.44" y="33.75" width="10.07" height="54.8"/><rect class="cls-1" x="38.44" y="201.86" width="10.07" height="34.68"/><rect class="cls-1" x="50.48" y="33.75" width="48.98" height="54.8"/><rect class="cls-1" x="38.44" y="89.79" width="10.07" height="54.8"/><rect class="cls-1" x="38.44" y="145.83" width="10.07" height="54.8"/><rect class="cls-1" x="50.48" y="89.79" width="48.98" height="54.8"/><rect class="cls-1" x="50.48" y="145.83" width="48.98" height="54.8"/><rect class="cls-1" x="50.48" y="201.86" width="48.98" height="34.68"/><rect class="cls-1" x="101.46" y="33.75" width="48.98" height="54.8"/><rect class="cls-1" x="101.46" y="89.79" width="48.98" height="54.8"/><rect class="cls-1" x="101.46" y="145.83" width="48.98" height="54.8"/><rect class="cls-1" x="101.46" y="201.86" width="48.98" height="34.68"/><rect class="cls-1" x="152.44" y="33.75" width="36.89" height="54.8"/><rect class="cls-1" x="152.44" y="89.79" width="36.89" height="54.8"/><rect class="cls-1" x="152.44" y="145.83" width="36.89" height="54.8"/><rect class="cls-1" x="152.44" y="201.86" width="36.89" height="34.68"/><path class="cls-2" d="M146.83,148c0,1.53-.09,3.26,2.22,4,3.12-.57,6.1-2.8,9.76-2,1.66,3.42-.64,6.19-2.05,8.92a41.64,41.64,0,0,1-9.7,11.86c-3.48,3.09-5.44,7.18-7.41,11,1.55,6,3.8,11.48,3.06,18-2.58,3.32-8,4-9.81,7.84.35,2.77.64,5,.94,7.4L130,217.53a26,26,0,0,1-1.31,4.38c-2.14,4.16-5.26,7.58-9.23,11.27-2.46.22-5.54.47-8.61.82-.31,0-.55.64-.82,1h-3.07l-1.39-7-4.76-9.28c0-1.69,0-3.73,0-5.78C94.68,202.7,96,200.27,99.63,191.6l-1.23-6.52c-2-4.15-3.21-9-6.72-12,.68-2.75,1.39-5.2,1.82-7.69.11-.61-.74-1.37-1.21-2.17H87.21l-3-3.94c-4.08-1-6.8,1.4-10.1,2.85-3.25-1.83-6.57-1.35-9.75.95l-8.65-7.23v-2.45l-5-4.42-.91-5.87,1.74-3.38c-.32-2.12.31-4.67-.82-7.35-.68-1.62.4-4.07,2-5.69,1-1.07,2.53-1.9,1.84-4.07,2.74-2.27,5.53-4.6,8.28-6.89v-3.23l6.53-6.25-1.9-5-2.12,1.28L64.19,98.9l1.64-4.53L64.66,92l2.76-1.44c2.43,1.85,5.39.12,8,1,2.28-2.75,2.28-2.75.53-7L72,82.72,73.68,81l3,1.36.77-2.27,1.21.87A2.64,2.64,0,0,0,80.25,78c1.92.38,3.43-.7,5.08-1.47V74.18l6.27-1.81-1.09-4.14L93.37,66l.44,2.65h2.85c0-.78.28-1.73-.06-2.35A28.81,28.81,0,0,0,94,62.82l-2,1.86H88.94l-1.49-1.49V57.65l4.69-2,1,.92,5.61-7.08V47.62l11.55-3.44,1.12.89,5.3-1.16.56,2,12,3c.26.54.74,1.53,1.22,2.6-2.66-.51-5.46.69-8.29-1,.28,2.75,2.63,3.48,3.84,5.37l4.45-1.68V51.44c1.32-.07,2.64-.07,4.45-.07l-1.23-2.82,2.46-.31,1,2.2,7.28-3c1.81,1.84,3.74.74,5.67-.15l2.32,1.32,1.1-2.48c1.55,1.24,3.09,2.37,4.52,3.63a74.81,74.81,0,0,1,14.79,18,84.21,84.21,0,0,1,8.9,19.86c.75,2.6,1.75,5.2,2,7.86s1.83,5,1.13,7.76c2.13,3.38.72,7.32,1.82,11s.23,7.76.23,11.56l-1.55,1.55-1.4-2.78c-6.77-.85-12.61,1.2-17.12-3.37-4.82,1.75-4.82,1.75-11.39-6.27-1.58.44-2.63,1.27-2.31,3.75l3.08,3.11v2.65l2.92-1.11v4c3.34-.11,4.89-2.36,6.82-4.15l1.51,3.35,5.06,2.81-4,7.48c-1.86.87-3.75,3.32-6.75,3.86-.14,2.74-3,1.85-4.33,3.08s-3.44,1.46-5.25,2-3.2,2.22-5.38,2.23c.62-2.76-.44-4.89-1.81-6.83l.89-1.36c-2.21-3.18-4.53-5.93-6.18-9-1.33-2.51-2.87-4.9-4.12-7.45a7.33,7.33,0,0,0-5.34-4.38,66,66,0,0,0,5.13,11.17c1.94,3.44,3.11,7.51,4.59,11.32C143.49,142.14,144.19,145.73,146.83,148ZM96.5,88.13c1.8,4,4.41,6.79,8.9,7.41.13,0,.2.44.32.74l-2.76.45,1,2.53c-3.11-4.05-9-5-11-10.31l-5.7,2.42L85,90c-.94,1.41-1.48,3.2-2.58,3.67-3.6,1.56-4,5.14-5.61,7.78L70.11,104v2.63h5.33l4.4-3c4.45,1,8.88-2.06,13.5-.71L94.66,106l-1.06,1.67,2.49,3.2h3.26l2.31,2.69,6.8,1.48c.57-1.55,1.06-2.88,1.47-4,3-.33,5.29-.16,7.47,1.51a7,7,0,0,0,5.53,1.43c1.27-.24,2.56.35,3.87-.69.53-.42,2.15.54,3.41.91l3.41-6.2c-.07-1-.09-2.53-.3-4a4,4,0,0,0-.69-1.37l-4.39,2.26c-1.57-1.52-3-1.74-4.16-.46l-4.46-2.21-2.58-7-2.37,2.21-1.34-.82-.48.57,2.5,4-3.75,1.16-3.69-4.52V94.88c-3.22-2.87-8-4-9.7-8.72Zm22.69,4,2.93,3.58,8.11-1.93,3,1.56h6.33l-.39-.52,2.22-.93L133,87.59l1.9-3.06c-3-1.12-4,.93-5.36,2.25l1.13,1.31h-2.88l-3.7-3.49ZM106.35,72l2.32-3-1.16-1.7,2.15-1.31,3,.92L111,63.86l7.2-1.75-.15-1.38c-3.35-.86-6.6,2.28-10,.51v-4.7c1.19-.74,2.46-1.46,3.64-2.31.3-.22.3-.86.53-1.59H109l-6,5.24v3.49l2.7,1.13a22.65,22.65,0,0,0-3.27,2.16c-1.15,1.13-.39,3.32-2.19,4.2-1.42.69-2.82,1.43-4.22,2.16-.14.08-.23.24-.43.44l3.94,1.17C103.25,70.64,103.25,70.64,106.35,72Zm50.79,25,2.41-1.13-1.74-2.47-1,.89-3.85-5,3.78-3.2-3.83-2-6.06,4.64c.89,3.92,4.11,5.73,6.16,8.39-1.56,1.3-.84,2.82-.79,4.19,3.64,2.52,6.91,3.23,8,1.8l-.78-3.79Z"/><path class="cls-2" d="M60.76,32.91c.24.41.5.81.71,1.23a11.14,11.14,0,0,1,.39,1.12l-2.07,2.32,1,1-5.24,4,1.15,1.14c-.74.53-1.39,1.32-2.16,1.47-5.57,1-9,2.42-14.47,5.8-.76.47-1.91.28-2.89.4V32.91Z"/><path class="cls-2" d="M148,202.48c1.72-1.33,3.47-2.84,5.37-4.11s1.65-4.06,4.46-4.59a10.14,10.14,0,0,1-.92,8.91c-1.36,2.32-1.41,4.87-2.58,7.15-1,1.92-.94,4.35-1.36,6.56l-4.34,2.52-2-3.46c-1.15-1.82-.13-3.79,1.33-5.74Z"/><path class="cls-2" d="M72,69.83V66.21l1.71-1.57,3.69,1.68-1,1.9,3.39,5.6,1.81.62L80.25,78c-2.61.06-5.29-.46-8.25,1.48.41-1.69,1.43-2.22,2.06-3l-1-1.08c1.14-1.17,2.73-2.14,1.88-4.22Z"/><path class="cls-2" d="M51.18,51c4.53,1.74,7.14,1.77,9.31.86l2.71,1c-1.84,3.17-5.06,1.89-7.2,3.59C55.14,54.45,52.21,54.21,51.18,51Z"/><path class="cls-2" d="M72.11,70.18l-1.43,4.44c-1.53.73-3.27,2.09-5.53,1.15l1-3.48C68.27,72.13,69.11,68.43,72.11,70.18Z"/><path class="cls-2" d="M99.24,102.9l-1.33-2.16,3-.19-.56,2.2Z"/><path class="cls-3" d="M287.54,215a53,53,0,0,1-15.11,9.42,43.67,43.67,0,0,1-15.58,2.74q-13.74,0-21.12-6.71a22.14,22.14,0,0,1-7.38-17.15,22.82,22.82,0,0,1,2.79-11.19,23.1,23.1,0,0,1,7.3-8.12,34.19,34.19,0,0,1,10.17-4.63,99.38,99.38,0,0,1,12.56-2.12q17.11-2,25.2-4.87c.05-1.94.08-3.17.08-3.69q0-8.64-4-12.17-5.42-4.78-16.09-4.79-10,0-14.72,3.5t-7,12.36l-13.81-1.88q1.88-8.88,6.2-14.33t12.48-8.4A55.73,55.73,0,0,1,268.39,140q10.68,0,17.35,2.51t9.81,6.32a22.3,22.3,0,0,1,4.4,9.61,80,80,0,0,1,.7,13v18.84q0,19.69.91,24.92a31.37,31.37,0,0,0,3.57,10H290.37A29.89,29.89,0,0,1,287.54,215Zm-1.17-31.56q-7.69,3.14-23.08,5.34c-5.81.83-9.92,1.78-12.33,2.82a12.32,12.32,0,0,0-5.57,4.59,12.5,12.5,0,0,0,2.32,16.14q4.28,3.76,12.52,3.76a29.15,29.15,0,0,0,14.52-3.57,22,22,0,0,0,9.34-9.77q2.28-4.78,2.28-14.13Z"/><path class="cls-3" d="M353.41,212.61l2,12.48a52.31,52.31,0,0,1-10.68,1.26q-7.69,0-11.93-2.44a13.6,13.6,0,0,1-6-6.39q-1.72-4-1.72-16.68v-48H314.79v-11h10.36V121.23l14.05-8.47v29.12h14.21v11H339.2v48.75q0,6,.74,7.77a5.9,5.9,0,0,0,2.44,2.75,9.38,9.38,0,0,0,4.83,1A45.44,45.44,0,0,0,353.41,212.61Z"/><path class="cls-3" d="M421.63,215a53.12,53.12,0,0,1-15.12,9.42,43.67,43.67,0,0,1-15.58,2.74q-13.74,0-21.12-6.71a22.17,22.17,0,0,1-7.37-17.15,22.82,22.82,0,0,1,2.78-11.19,23.1,23.1,0,0,1,7.3-8.12,34.19,34.19,0,0,1,10.17-4.63,99.38,99.38,0,0,1,12.56-2.12q17.12-2,25.2-4.87c.05-1.94.08-3.17.08-3.69q0-8.64-4-12.17-5.41-4.78-16.09-4.79-10,0-14.72,3.5t-7,12.36l-13.82-1.88q1.88-8.88,6.2-14.33t12.48-8.4A55.77,55.77,0,0,1,402.47,140q10.68,0,17.35,2.51t9.81,6.32a22.18,22.18,0,0,1,4.4,9.61,79.71,79.71,0,0,1,.71,13v18.84q0,19.69.9,24.92a31.37,31.37,0,0,0,3.57,10H424.45A29.89,29.89,0,0,1,421.63,215Zm-1.18-31.56q-7.69,3.14-23.08,5.34c-5.81.83-9.92,1.78-12.33,2.82a12.37,12.37,0,0,0-5.57,4.59,12.5,12.5,0,0,0,2.32,16.14q4.27,3.76,12.52,3.76a29.15,29.15,0,0,0,14.52-3.57,22,22,0,0,0,9.34-9.77q2.28-4.78,2.28-14.13Z"/><path class="cls-4" d="M453.26,188.27,467.63,187q1,8.64,4.75,14.17T484,210.14a43.94,43.94,0,0,0,17.66,3.41A42.28,42.28,0,0,0,517,211q6.66-2.6,9.93-7.1a16.5,16.5,0,0,0,3.25-9.85,14.93,14.93,0,0,0-3.14-9.46q-3.13-4.05-10.36-6.79-4.63-1.81-20.49-5.62T474,165q-8.25-4.32-12.29-10.72a26.28,26.28,0,0,1-4-14.32,29.3,29.3,0,0,1,4.94-16.29,30.69,30.69,0,0,1,14.45-11.5,54.73,54.73,0,0,1,21.12-3.93,57.76,57.76,0,0,1,22.56,4.12,32.57,32.57,0,0,1,15,12.13,34.91,34.91,0,0,1,5.65,18.14l-14.6,1.1q-1.19-10.92-8-16.49t-20.06-5.57q-13.82,0-20.13,5.06t-6.32,12.21a13.09,13.09,0,0,0,4.47,10.2q4.4,4,23,8.21t25.47,7.34q10.05,4.62,14.84,11.73a28.61,28.61,0,0,1,4.78,16.37,31.29,31.29,0,0,1-5.26,17.31A34.56,34.56,0,0,1,524.5,222.7a52.6,52.6,0,0,1-22.17,4.51q-15.63,0-26.18-4.55A36.72,36.72,0,0,1,459.58,209,38.88,38.88,0,0,1,453.26,188.27Z"/><path class="cls-4" d="M566.15,225.25V110.17h15.23v47.25H641.2V110.17h15.22V225.25H641.2V171H581.38v54.25Z"/><path class="cls-4" d="M684.37,225.25V110.17H699.6V225.25Z"/><path class="cls-4" d="M726.76,225.25V110.17H810v13.58H742V159h63.67V172.5H742v39.17h70.65v13.58Z"/><path class="cls-4" d="M833.06,225.25V110.17h15.23v101.5H905v13.58Z"/><path class="cls-4" d="M923.1,225.25V110.17h39.64q13.43,0,20.49,1.64a39,39,0,0,1,16.88,8.25,46.83,46.83,0,0,1,13.62,19.66,77.18,77.18,0,0,1,4.51,27.36,80.49,80.49,0,0,1-3.06,23.24,56.51,56.51,0,0,1-7.85,16.76,41.8,41.8,0,0,1-10.48,10.44,42.63,42.63,0,0,1-13.74,5.77,78.33,78.33,0,0,1-18.49,2Zm15.23-13.58H962.9q11.39,0,17.86-2.12a25.4,25.4,0,0,0,10.32-6A36.34,36.34,0,0,0,999.52,189q3-9.15,3-22.18,0-18-5.92-27.75t-14.41-13q-6.12-2.35-19.7-2.35H938.33Z"/><path class="cls-5" d="M1.5,269V1.5H93.63q31.2,0,47.62,3.83,23,5.3,39.23,19.16,21.15,17.88,31.65,45.7t10.49,63.58q0,30.47-7.11,54t-18.25,39Q186.13,242.14,172.9,251T141,264.4Q122.28,269,98,269ZM36.89,237.4H94q26.44,0,41.5-4.93t24-13.86q12.58-12.6,19.61-33.85t7-51.54q0-42-13.77-64.49T138.88,38.54q-14.24-5.48-45.79-5.48H36.89Z"/><path class="cls-3" d="M259.11,257.59l4.42-.39a9.86,9.86,0,0,0,1.46,4.36,8,8,0,0,0,3.56,2.75,13.53,13.53,0,0,0,5.44,1.05,13.07,13.07,0,0,0,4.73-.79,6.62,6.62,0,0,0,3.06-2.19,5.14,5.14,0,0,0,1-3,4.58,4.58,0,0,0-1-2.91,7.2,7.2,0,0,0-3.19-2.09,62.84,62.84,0,0,0-6.3-1.72,32.79,32.79,0,0,1-6.83-2.21,9.65,9.65,0,0,1-3.78-3.3,8.06,8.06,0,0,1-1.24-4.41,9,9,0,0,1,1.52-5,9.36,9.36,0,0,1,4.44-3.53,16.77,16.77,0,0,1,6.5-1.21,17.68,17.68,0,0,1,6.94,1.27,10,10,0,0,1,4.62,3.73,10.68,10.68,0,0,1,1.74,5.57l-4.49.34a7.24,7.24,0,0,0-2.45-5.07q-2.09-1.71-6.17-1.71-4.25,0-6.2,1.55A4.69,4.69,0,0,0,265,242.4a4,4,0,0,0,1.38,3.14q1.35,1.23,7.06,2.52a47,47,0,0,1,7.84,2.26,10.69,10.69,0,0,1,4.56,3.61,8.8,8.8,0,0,1,1.47,5,9.63,9.63,0,0,1-1.62,5.33,10.66,10.66,0,0,1-4.64,3.89,16.29,16.29,0,0,1-6.82,1.38,20.29,20.29,0,0,1-8.06-1.4,11.23,11.23,0,0,1-5.09-4.21A12,12,0,0,1,259.11,257.59Z"/><path class="cls-3" d="M310.69,260.7l4.49.56a11,11,0,0,1-3.93,6.11,11.85,11.85,0,0,1-7.34,2.17,11.71,11.71,0,0,1-8.93-3.47c-2.19-2.3-3.29-5.55-3.29-9.71q0-6.48,3.33-10.05a11.28,11.28,0,0,1,8.64-3.57,11,11,0,0,1,8.41,3.5q3.26,3.49,3.26,9.85c0,.26,0,.64,0,1.16H296.18a9.86,9.86,0,0,0,2.39,6.47,7.1,7.1,0,0,0,5.36,2.25,6.65,6.65,0,0,0,4.08-1.26A8.31,8.31,0,0,0,310.69,260.7Zm-14.27-7h14.32a8.69,8.69,0,0,0-1.64-4.86,6.68,6.68,0,0,0-5.39-2.51,6.92,6.92,0,0,0-5,2A7.94,7.94,0,0,0,296.42,253.68Z"/><path class="cls-3" d="M337.37,259.57l4.28.55a11.13,11.13,0,0,1-3.59,6.92,10.43,10.43,0,0,1-7.09,2.5,11,11,0,0,1-8.46-3.44q-3.19-3.44-3.2-9.87a17.78,17.78,0,0,1,1.38-7.26,9.55,9.55,0,0,1,4.19-4.68,12.48,12.48,0,0,1,6.12-1.55,10.63,10.63,0,0,1,6.83,2.11,9.71,9.71,0,0,1,3.41,6l-4.23.65a7,7,0,0,0-2.14-3.89,5.55,5.55,0,0,0-3.7-1.3,6.76,6.76,0,0,0-5.34,2.36c-1.37,1.56-2.05,4.05-2.05,7.44s.66,5.95,2,7.51a6.42,6.42,0,0,0,5.17,2.35,6.12,6.12,0,0,0,4.27-1.57A7.79,7.79,0,0,0,337.37,259.57Z"/><path class="cls-3" d="M362.17,269v-3.77a9.38,9.38,0,0,1-8.14,4.35,10.33,10.33,0,0,1-4.23-.87,7,7,0,0,1-2.93-2.18,8.37,8.37,0,0,1-1.34-3.23,22.76,22.76,0,0,1-.26-4.05V243.32h4.35v14.22a25.27,25.27,0,0,0,.26,4.59,4.5,4.5,0,0,0,1.74,2.69,5.39,5.39,0,0,0,3.28,1,7.2,7.2,0,0,0,3.67-1,5.54,5.54,0,0,0,2.43-2.73,13.8,13.8,0,0,0,.71-5V243.32h4.35V269Z"/><path class="cls-3" d="M372.82,269V243.32h3.91v3.88a10.62,10.62,0,0,1,2.77-3.59,4.8,4.8,0,0,1,2.79-.87,8.4,8.4,0,0,1,4.46,1.4l-1.49,4a6.23,6.23,0,0,0-3.19-.94,4.1,4.1,0,0,0-2.56.86,4.6,4.6,0,0,0-1.62,2.37,17.07,17.07,0,0,0-.72,5.07V269Z"/><path class="cls-3" d="M406.89,260.7l4.49.56a11,11,0,0,1-3.93,6.11,11.85,11.85,0,0,1-7.34,2.17,11.71,11.71,0,0,1-8.93-3.47c-2.19-2.3-3.29-5.55-3.29-9.71q0-6.48,3.33-10.05a11.28,11.28,0,0,1,8.64-3.57,11,11,0,0,1,8.41,3.5q3.25,3.49,3.26,9.85c0,.26,0,.64,0,1.16H392.38a9.86,9.86,0,0,0,2.39,6.47,7.1,7.1,0,0,0,5.36,2.25,6.65,6.65,0,0,0,4.08-1.26A8.31,8.31,0,0,0,406.89,260.7Zm-14.27-7h14.32a8.69,8.69,0,0,0-1.64-4.86,6.68,6.68,0,0,0-5.39-2.51,6.92,6.92,0,0,0-5,2A8,8,0,0,0,392.62,253.68Z"/><path class="cls-3" d="M430.94,269v-35.4h13.28a16.38,16.38,0,0,1,6.51,1.08,8.41,8.41,0,0,1,3.84,3.3,8.79,8.79,0,0,1,1.39,4.68,8,8,0,0,1-1.23,4.27,8.88,8.88,0,0,1-3.72,3.24,9.14,9.14,0,0,1,4.93,3.21,8.54,8.54,0,0,1,1.73,5.36,10.31,10.31,0,0,1-1.05,4.62,8.81,8.81,0,0,1-2.6,3.3,11,11,0,0,1-3.87,1.75,23.8,23.8,0,0,1-5.71.59Zm4.69-20.52h7.65a16.71,16.71,0,0,0,4.47-.42,4.93,4.93,0,0,0,2.69-1.76,5.09,5.09,0,0,0,.9-3.09,5.71,5.71,0,0,0-.84-3.1,4.29,4.29,0,0,0-2.42-1.84,20.16,20.16,0,0,0-5.38-.49h-7.07Zm0,16.34h8.81a19.51,19.51,0,0,0,3.19-.17,7.59,7.59,0,0,0,2.7-1,5.13,5.13,0,0,0,1.79-2,6.24,6.24,0,0,0,.7-3,5.85,5.85,0,0,0-1-3.44A5.33,5.33,0,0,0,449,253.2a17.62,17.62,0,0,0-5.18-.59h-8.18Z"/><path class="cls-3" d="M463.59,238.56v-5h4.34v5Zm0,30.4V243.32h4.34V269Z"/><path class="cls-3" d="M472.93,256.14q0-7.12,4-10.55a12,12,0,0,1,8.07-2.85,11.5,11.5,0,0,1,8.64,3.46q3.36,3.47,3.36,9.58a16.92,16.92,0,0,1-1.49,7.78,10.5,10.5,0,0,1-4.32,4.41,12.55,12.55,0,0,1-6.19,1.57,11.55,11.55,0,0,1-8.71-3.45Q472.94,262.63,472.93,256.14Zm4.47,0q0,4.92,2.15,7.38a7.15,7.15,0,0,0,10.79,0q2.15-2.46,2.15-7.51,0-4.76-2.16-7.2a7.17,7.17,0,0,0-10.78,0C478.12,250.4,477.4,252.85,477.4,256.14Z"/><path class="cls-3" d="M500.31,261.31l4.3-.68a6,6,0,0,0,2,4,7,7,0,0,0,4.62,1.38,6.83,6.83,0,0,0,4.45-1.22,3.67,3.67,0,0,0,1.44-2.86,2.62,2.62,0,0,0-1.28-2.32,18.57,18.57,0,0,0-4.44-1.48,40.93,40.93,0,0,1-6.63-2.08,6.32,6.32,0,0,1-3.75-5.88,6.65,6.65,0,0,1,.78-3.18,7.24,7.24,0,0,1,2.14-2.43,8.85,8.85,0,0,1,2.77-1.26,12.92,12.92,0,0,1,3.75-.52,14.83,14.83,0,0,1,5.3.87,7.25,7.25,0,0,1,3.37,2.35,9.32,9.32,0,0,1,1.5,4l-4.25.58a4.7,4.7,0,0,0-1.68-3.09,6.17,6.17,0,0,0-3.93-1.11,7.1,7.1,0,0,0-4.27,1,2.89,2.89,0,0,0-1.28,2.32,2.42,2.42,0,0,0,.53,1.52,3.87,3.87,0,0,0,1.67,1.16q.65.24,3.84,1.11a51.67,51.67,0,0,1,6.43,2,6.45,6.45,0,0,1,2.86,2.28,6.32,6.32,0,0,1,1,3.72,7.25,7.25,0,0,1-1.27,4.09,8.16,8.16,0,0,1-3.65,3,13.35,13.35,0,0,1-5.41,1.05q-5,0-7.62-2.08A9.65,9.65,0,0,1,500.31,261.31Z"/><path class="cls-3" d="M543.51,259.57l4.28.55A11.13,11.13,0,0,1,544.2,267a10.41,10.41,0,0,1-7.09,2.5,11,11,0,0,1-8.46-3.44q-3.2-3.44-3.2-9.87a17.78,17.78,0,0,1,1.38-7.26,9.6,9.6,0,0,1,4.19-4.68,12.48,12.48,0,0,1,6.12-1.55,10.63,10.63,0,0,1,6.83,2.11,9.71,9.71,0,0,1,3.41,6l-4.23.65a7,7,0,0,0-2.14-3.89,5.55,5.55,0,0,0-3.7-1.3,6.76,6.76,0,0,0-5.34,2.36c-1.37,1.56-2.05,4.05-2.05,7.44s.66,5.95,2,7.51a6.42,6.42,0,0,0,5.17,2.35,6.12,6.12,0,0,0,4.27-1.57A7.79,7.79,0,0,0,543.51,259.57Z"/><path class="cls-3" d="M551.53,238.56v-5h4.35v5Zm0,30.4V243.32h4.35V269Z"/><path class="cls-3" d="M580.05,260.7l4.49.56a11,11,0,0,1-3.94,6.11,13.33,13.33,0,0,1-16.26-1.3c-2.2-2.3-3.3-5.55-3.3-9.71q0-6.48,3.34-10.05a11.28,11.28,0,0,1,8.64-3.57,10.93,10.93,0,0,1,8.4,3.5q3.27,3.49,3.26,9.85c0,.26,0,.64,0,1.16H565.54a9.86,9.86,0,0,0,2.38,6.47,7.13,7.13,0,0,0,5.37,2.25,6.65,6.65,0,0,0,4.08-1.26A8.38,8.38,0,0,0,580.05,260.7Zm-14.27-7h14.31a8.69,8.69,0,0,0-1.64-4.86,6.66,6.66,0,0,0-5.38-2.51,6.93,6.93,0,0,0-5,2A7.93,7.93,0,0,0,565.78,253.68Z"/><path class="cls-3" d="M590,269V243.32h3.91V247a9.22,9.22,0,0,1,8.16-4.22,10.82,10.82,0,0,1,4.26.83,6.64,6.64,0,0,1,2.91,2.19,8.46,8.46,0,0,1,1.35,3.21,24.94,24.94,0,0,1,.24,4.22V269h-4.34v-15.6a11.65,11.65,0,0,0-.51-4,4.17,4.17,0,0,0-1.8-2.1,5.75,5.75,0,0,0-3-.79,7,7,0,0,0-4.79,1.77q-2,1.75-2,6.69v14Z"/><path class="cls-3" d="M634.23,259.57l4.28.55a11.13,11.13,0,0,1-3.59,6.92,10.43,10.43,0,0,1-7.09,2.5,11,11,0,0,1-8.46-3.44q-3.2-3.44-3.2-9.87a17.78,17.78,0,0,1,1.38-7.26,9.55,9.55,0,0,1,4.19-4.68,12.48,12.48,0,0,1,6.12-1.55,10.63,10.63,0,0,1,6.83,2.11,9.65,9.65,0,0,1,3.4,6l-4.22.65a7,7,0,0,0-2.14-3.89,5.57,5.57,0,0,0-3.7-1.3,6.76,6.76,0,0,0-5.34,2.36c-1.37,1.56-2.05,4.05-2.05,7.44s.66,5.95,2,7.51a6.42,6.42,0,0,0,5.16,2.35,6.12,6.12,0,0,0,4.28-1.57A7.79,7.79,0,0,0,634.23,259.57Z"/><path class="cls-3" d="M659.78,260.7l4.49.56a11,11,0,0,1-3.94,6.11,13.33,13.33,0,0,1-16.26-1.3c-2.2-2.3-3.3-5.55-3.3-9.71q0-6.48,3.34-10.05a11.28,11.28,0,0,1,8.64-3.57,10.93,10.93,0,0,1,8.4,3.5q3.27,3.49,3.26,9.85c0,.26,0,.64,0,1.16H645.27a9.81,9.81,0,0,0,2.39,6.47A7.1,7.1,0,0,0,653,266a6.65,6.65,0,0,0,4.08-1.26A8.38,8.38,0,0,0,659.78,260.7Zm-14.27-7h14.32a8.69,8.69,0,0,0-1.65-4.86,6.66,6.66,0,0,0-5.38-2.51,6.89,6.89,0,0,0-5,2A7.94,7.94,0,0,0,645.51,253.68Z"/><path class="cls-3" d="M709.28,256.55l4.68,1.18a15.75,15.75,0,0,1-5.3,8.8,14.6,14.6,0,0,1-9.35,3,16.75,16.75,0,0,1-9.31-2.33,14.54,14.54,0,0,1-5.46-6.75,24,24,0,0,1-1.87-9.48,20.83,20.83,0,0,1,2.11-9.65,14.47,14.47,0,0,1,6-6.25,17.54,17.54,0,0,1,8.59-2.14,14.51,14.51,0,0,1,8.93,2.7,14,14,0,0,1,5.05,7.61l-4.61,1.08a10.87,10.87,0,0,0-3.58-5.62,9.48,9.48,0,0,0-5.89-1.76,11.47,11.47,0,0,0-6.82,1.95,10.36,10.36,0,0,0-3.85,5.25,21.2,21.2,0,0,0-1.11,6.8,21.5,21.5,0,0,0,1.32,7.88,9.76,9.76,0,0,0,4.09,5,11.47,11.47,0,0,0,6,1.67,10.07,10.07,0,0,0,6.66-2.27A11.62,11.62,0,0,0,709.28,256.55Z"/><path class="cls-3" d="M717.56,256.14q0-7.12,4-10.55a12,12,0,0,1,8.07-2.85,11.5,11.5,0,0,1,8.64,3.46q3.36,3.47,3.36,9.58a16.92,16.92,0,0,1-1.49,7.78,10.5,10.5,0,0,1-4.32,4.41,12.55,12.55,0,0,1-6.19,1.57,11.55,11.55,0,0,1-8.71-3.45Q717.57,262.63,717.56,256.14Zm4.47,0q0,4.92,2.15,7.38a7.15,7.15,0,0,0,10.79,0q2.14-2.46,2.15-7.51,0-4.76-2.16-7.2a7.17,7.17,0,0,0-10.78,0C722.75,250.4,722,252.85,722,256.14Z"/><path class="cls-3" d="M746.59,269v-35.4h4.34V269Z"/><path class="cls-3" d="M757.57,269v-35.4h4.35V269Z"/><path class="cls-3" d="M785.39,265.8a16,16,0,0,1-4.65,2.89,13.3,13.3,0,0,1-4.79.85,9.35,9.35,0,0,1-6.5-2.06,6.84,6.84,0,0,1-2.27-5.28,7.15,7.15,0,0,1,3.11-5.94,10.6,10.6,0,0,1,3.12-1.43,32.48,32.48,0,0,1,3.87-.65,39.92,39.92,0,0,0,7.75-1.49c0-.6,0-1,0-1.14,0-1.77-.41-3-1.23-3.74a7.28,7.28,0,0,0-5-1.47,7.68,7.68,0,0,0-4.53,1.07,6.6,6.6,0,0,0-2.16,3.8l-4.25-.58a10.49,10.49,0,0,1,1.91-4.4,8.35,8.35,0,0,1,3.84-2.59,17.19,17.19,0,0,1,5.82-.9,15.26,15.26,0,0,1,5.33.77,7,7,0,0,1,3,1.94,6.69,6.69,0,0,1,1.35,3,23.84,23.84,0,0,1,.22,4v5.8a60.2,60.2,0,0,0,.28,7.66,9.48,9.48,0,0,0,1.1,3.08h-4.54A9.28,9.28,0,0,1,785.39,265.8Zm-.36-9.71a32.21,32.21,0,0,1-7.1,1.64,16.59,16.59,0,0,0-3.79.87,3.83,3.83,0,0,0-1.72,1.41,3.87,3.87,0,0,0,.71,5,5.71,5.71,0,0,0,3.86,1.16,9,9,0,0,0,4.46-1.1,6.85,6.85,0,0,0,2.88-3,10.61,10.61,0,0,0,.7-4.35Z"/><path class="cls-3" d="M800.17,269h-4v-35.4h4.35v12.63a8.61,8.61,0,0,1,7-3.45,10.85,10.85,0,0,1,4.48.95,9.17,9.17,0,0,1,3.47,2.68,12.82,12.82,0,0,1,2.14,4.17,17,17,0,0,1,.77,5.21q0,6.6-3.26,10.19a10.19,10.19,0,0,1-7.82,3.6,8.15,8.15,0,0,1-7.12-3.79Zm0-13q0,4.6,1.26,6.66a6.2,6.2,0,0,0,10.47.88q2.08-2.48,2.08-7.38t-2-7.41a6.09,6.09,0,0,0-4.82-2.39,6.24,6.24,0,0,0-4.92,2.48C800.81,250.44,800.12,252.82,800.12,256Z"/><path class="cls-3" d="M822,256.14q0-7.12,4-10.55a12,12,0,0,1,8.07-2.85,11.49,11.49,0,0,1,8.64,3.46q3.36,3.47,3.36,9.58a16.79,16.79,0,0,1-1.49,7.78,10.5,10.5,0,0,1-4.32,4.41,12.52,12.52,0,0,1-6.19,1.57,11.55,11.55,0,0,1-8.71-3.45Q822,262.63,822,256.14Zm4.47,0q0,4.92,2.15,7.38a6.9,6.9,0,0,0,5.41,2.45,6.81,6.81,0,0,0,5.38-2.47c1.44-1.64,2.15-4.14,2.15-7.51q0-4.76-2.16-7.2a7.17,7.17,0,0,0-10.78,0C827.23,250.4,826.51,252.85,826.51,256.14Z"/><path class="cls-3" d="M851.12,269V243.32H855v3.88a10.75,10.75,0,0,1,2.76-3.59,4.85,4.85,0,0,1,2.79-.87,8.41,8.41,0,0,1,4.47,1.4l-1.5,4a6.17,6.17,0,0,0-3.18-.94,4.08,4.08,0,0,0-2.56.86,4.6,4.6,0,0,0-1.62,2.37,17.06,17.06,0,0,0-.73,5.07V269Z"/><path class="cls-3" d="M884.37,265.8a16,16,0,0,1-4.65,2.89,13.32,13.32,0,0,1-4.8.85,9.34,9.34,0,0,1-6.49-2.06,6.84,6.84,0,0,1-2.27-5.28,7,7,0,0,1,.86-3.44,7.13,7.13,0,0,1,2.24-2.5,10.78,10.78,0,0,1,3.13-1.43,32.23,32.23,0,0,1,3.86-.65,39.76,39.76,0,0,0,7.75-1.49q0-.9,0-1.14c0-1.77-.41-3-1.23-3.74a7.28,7.28,0,0,0-4.95-1.47,7.64,7.64,0,0,0-4.53,1.07,6.5,6.5,0,0,0-2.16,3.8l-4.25-.58a10.37,10.37,0,0,1,1.91-4.4,8.35,8.35,0,0,1,3.84-2.59,17.17,17.17,0,0,1,5.81-.9,15.32,15.32,0,0,1,5.34.77,6.07,6.07,0,0,1,4.37,4.9,23.84,23.84,0,0,1,.22,4v5.8a60.2,60.2,0,0,0,.28,7.66,9.48,9.48,0,0,0,1.1,3.08h-4.54A9.28,9.28,0,0,1,884.37,265.8Zm-.37-9.71a32,32,0,0,1-7.09,1.64,16.71,16.71,0,0,0-3.8.87A3.8,3.8,0,0,0,871.4,260a3.87,3.87,0,0,0,.71,5,5.68,5.68,0,0,0,3.85,1.16,9,9,0,0,0,4.47-1.1,6.83,6.83,0,0,0,2.87-3,10.45,10.45,0,0,0,.7-4.35Z"/><path class="cls-3" d="M904.62,265.07l.63,3.84a15.88,15.88,0,0,1-3.28.39,7.42,7.42,0,0,1-3.67-.75,4.2,4.2,0,0,1-1.84-2,15.66,15.66,0,0,1-.53-5.13V246.7h-3.18v-3.38h3.18V237l4.32-2.61v9h4.37v3.38h-4.37v15a7.64,7.64,0,0,0,.23,2.39,1.87,1.87,0,0,0,.75.85,2.9,2.9,0,0,0,1.49.31A12.9,12.9,0,0,0,904.62,265.07Z"/><path class="cls-3" d="M908.9,238.56v-5h4.35v5Zm0,30.4V243.32h4.35V269Z"/><path class="cls-3" d="M918.24,256.14q0-7.12,4-10.55a12,12,0,0,1,8.07-2.85,11.49,11.49,0,0,1,8.64,3.46q3.36,3.47,3.36,9.58a16.93,16.93,0,0,1-1.48,7.78,10.58,10.58,0,0,1-4.33,4.41,12.52,12.52,0,0,1-6.19,1.57,11.55,11.55,0,0,1-8.71-3.45Q918.25,262.63,918.24,256.14Zm4.47,0q0,4.92,2.15,7.38a6.9,6.9,0,0,0,5.41,2.45,6.81,6.81,0,0,0,5.38-2.47c1.44-1.64,2.15-4.14,2.15-7.51q0-4.76-2.16-7.2a7.17,7.17,0,0,0-10.78,0C923.43,250.4,922.71,252.85,922.71,256.14Z"/><path class="cls-3" d="M947.37,269V243.32h3.91V247a9.22,9.22,0,0,1,8.16-4.22,10.82,10.82,0,0,1,4.26.83,6.64,6.64,0,0,1,2.91,2.19A8.31,8.31,0,0,1,968,249a24.94,24.94,0,0,1,.24,4.22V269h-4.34v-15.6a11.65,11.65,0,0,0-.51-4,4.17,4.17,0,0,0-1.8-2.1,5.75,5.75,0,0,0-3-.79,7,7,0,0,0-4.79,1.77q-2,1.75-2,6.69v14Z"/></g></g></svg>